<svg xmlns:xlink="http://www.w3.org/1999/xlink" width="151.817" xmlns="http://www.w3.org/2000/svg" height="130.785" id="screenshot-57be61d8-f430-807f-8002-cc1c67172bba" viewBox="0 0 151.817 130.785" style="-webkit-print-color-adjust: exact;" fill="none" version="1.1"><g id="shape-57be61d8-f430-807f-8002-cc1c67172bba" rx="0" ry="0"><g id="shape-57be61d8-f430-807f-8002-cb9f3ec1d67c"><g class="fills" id="fills-57be61d8-f430-807f-8002-cb9f3ec1d67c"><ellipse rx="49" ry="49" cx="72" cy="69.5" transform="matrix(1.000000, 0.000000, 0.000000, 1.000000, 0.000000, 0.000000)" style="fill: rgb(248, 248, 248); fill-opacity: 1;"/></g></g><g id="shape-57be61d8-f430-807f-8002-cb9f4f050ab2"><g class="fills" id="fills-57be61d8-f430-807f-8002-cb9f4f050ab2"><rect rx="0" ry="0" x="-1.3413291345178777" y="110.6424662947257" transform="matrix(0.966705, 0.255894, -0.255894, 0.966705, 30.888905, -11.115365)" width="119" height="5" style="fill: rgb(26, 24, 24); fill-opacity: 1;"/></g></g><g id="shape-57be61d8-f430-807f-8002-cc1c2d8b3b26"><g class="fills" id="fills-57be61d8-f430-807f-8002-cc1c2d8b3b26"><rect rx="0" ry="0" x="0.15867086548212228" y="105.6424662947257" transform="matrix(0.966705, 0.255894, -0.255894, 0.966705, 29.659376, -11.665682)" width="119" height="5" style="fill: rgb(26, 24, 24); fill-opacity: 1;"/></g></g><g id="shape-57be61d8-f430-807f-8002-cc1c389408b4"><g class="fills" id="fills-57be61d8-f430-807f-8002-cc1c389408b4"><rect rx="0" ry="0" x="0.15867086548212228" y="100.1424662947257" transform="matrix(0.966705, 0.255894, -0.255894, 0.966705, 28.251958, -11.848805)" width="119" height="5" style="fill: rgb(26, 24, 24); fill-opacity: 1;"/></g></g><g id="shape-57be61d8-f430-807f-8002-cc1c51ec076d"><g class="fills" id="fills-57be61d8-f430-807f-8002-cc1c51ec076d"><rect rx="0" ry="0" x="2.1586708654821223" y="95.1424662947257" transform="matrix(0.966705, 0.255894, -0.255894, 0.966705, 27.039078, -12.527070)" width="119" height="5" style="fill: rgb(26, 24, 24); fill-opacity: 1;"/></g></g><g id="shape-57be61d8-f430-807f-8002-cc1c5a6480b0"><g class="fills" id="fills-57be61d8-f430-807f-8002-cc1c5a6480b0"><rect rx="0" ry="0" x="4.158670865482122" y="90.1424662947257" transform="matrix(0.966705, 0.255894, -0.255894, 0.966705, 25.826197, -13.205334)" width="119" height="5" style="fill: rgb(26, 24, 24); fill-opacity: 1;"/></g></g><g id="shape-57be61d8-f430-807f-8002-cc1c5b203ea3"><g class="fills" id="fills-57be61d8-f430-807f-8002-cc1c5b203ea3"><rect rx="0" ry="0" x="6.158670865482122" y="85.1424662947257" transform="matrix(0.966705, 0.255894, -0.255894, 0.966705, 24.613317, -13.883599)" width="119" height="5" style="fill: rgb(26, 24, 24); fill-opacity: 1;"/></g></g><g id="shape-57be61d8-f430-807f-8002-cc1c5b6979ec"><g class="fills" id="fills-57be61d8-f430-807f-8002-cc1c5b6979ec"><rect rx="0" ry="0" x="8.158670865482122" y="80.1424662947257" transform="matrix(0.966705, 0.255894, -0.255894, 0.966705, 23.400436, -14.561863)" width="119" height="5" style="fill: rgb(26, 24, 24); fill-opacity: 1;"/></g></g><g id="shape-57be61d8-f430-807f-8002-cc1c5b9f1eb1"><g class="fills" id="fills-57be61d8-f430-807f-8002-cc1c5b9f1eb1"><rect rx="0" ry="0" x="10.158670865482122" y="75.1424662947257" transform="matrix(0.966705, 0.255894, -0.255894, 0.966705, 22.187556, -15.240127)" width="119" height="5" style="fill: rgb(26, 24, 24); fill-opacity: 1;"/></g></g><g id="shape-57be61d8-f430-807f-8002-cc1c5bd80e5b"><g class="fills" id="fills-57be61d8-f430-807f-8002-cc1c5bd80e5b"><rect rx="0" ry="0" x="12.158670865482122" y="70.1424662947257" transform="matrix(0.966705, 0.255894, -0.255894, 0.966705, 20.974675, -15.918392)" width="119" height="5" style="fill: rgb(26, 24, 24); fill-opacity: 1;"/></g></g><g id="shape-57be61d8-f430-807f-8002-cc1c5c0b4d1c"><g class="fills" id="fills-57be61d8-f430-807f-8002-cc1c5c0b4d1c"><rect rx="0" ry="0" x="14.158670865482122" y="65.1424662947257" transform="matrix(0.966705, 0.255894, -0.255894, 0.966705, 19.761795, -16.596656)" width="119" height="5" style="fill: rgb(26, 24, 24); fill-opacity: 1;"/></g></g><g id="shape-57be61d8-f430-807f-8002-cc1c5c7c9684"><g class="fills" id="fills-57be61d8-f430-807f-8002-cc1c5c7c9684"><rect rx="0" ry="0" x="16.158670865482122" y="60.14246629472569" transform="matrix(0.966705, 0.255894, -0.255894, 0.966705, 18.548914, -17.274921)" width="119" height="5" style="fill: rgb(26, 24, 24); fill-opacity: 1;"/></g></g><g id="shape-57be61d8-f430-807f-8002-cc1c5cb0a37d"><g class="fills" id="fills-57be61d8-f430-807f-8002-cc1c5cb0a37d"><rect rx="0" ry="0" x="18.158670865482122" y="55.14246629472569" transform="matrix(0.966705, 0.255894, -0.255894, 0.966705, 17.336033, -17.953185)" width="119" height="5" style="fill: rgb(26, 24, 24); fill-opacity: 1;"/></g></g><g id="shape-57be61d8-f430-807f-8002-cc1c5cde7f24"><g class="fills" id="fills-57be61d8-f430-807f-8002-cc1c5cde7f24"><rect rx="0" ry="0" x="20.158670865482122" y="50.14246629472569" transform="matrix(0.966705, 0.255894, -0.255894, 0.966705, 16.123153, -18.631449)" width="119" height="5" style="fill: rgb(26, 24, 24); fill-opacity: 1;"/></g></g><g id="shape-57be61d8-f430-807f-8002-cc1c5df11482"><g class="fills" id="fills-57be61d8-f430-807f-8002-cc1c5df11482"><rect rx="0" ry="0" x="22.158670865482122" y="45.14246629472569" transform="matrix(0.966705, 0.255894, -0.255894, 0.966705, 14.910272, -19.309714)" width="119" height="5" style="fill: rgb(26, 24, 24); fill-opacity: 1;"/></g></g><g id="shape-57be61d8-f430-807f-8002-cc1c5e270be5"><g class="fills" id="fills-57be61d8-f430-807f-8002-cc1c5e270be5"><rect rx="0" ry="0" x="24.158670865482122" y="40.14246629472569" transform="matrix(0.966705, 0.255894, -0.255894, 0.966705, 13.697392, -19.987978)" width="119" height="5" style="fill: rgb(26, 24, 24); fill-opacity: 1;"/></g></g><g id="shape-57be61d8-f430-807f-8002-cc1c5e588f2a"><g class="fills" id="fills-57be61d8-f430-807f-8002-cc1c5e588f2a"><rect rx="0" ry="0" x="26.158670865482122" y="35.14246629472569" transform="matrix(0.966705, 0.255894, -0.255894, 0.966705, 12.484511, -20.666243)" width="119" height="5" style="fill: rgb(26, 24, 24); fill-opacity: 1;"/></g></g><g id="shape-57be61d8-f430-807f-8002-cc1c5e7c8c50"><g class="fills" id="fills-57be61d8-f430-807f-8002-cc1c5e7c8c50"><rect rx="0" ry="0" x="28.158670865482122" y="30.142466294725693" transform="matrix(0.966705, 0.255894, -0.255894, 0.966705, 11.271631, -21.344507)" width="119" height="5" style="fill: rgb(26, 24, 24); fill-opacity: 1;"/></g></g><g id="shape-57be61d8-f430-807f-8002-cc1c5ea2cb9f"><g class="fills" id="fills-57be61d8-f430-807f-8002-cc1c5ea2cb9f"><rect rx="0" ry="0" x="30.158670865482122" y="25.142466294725693" transform="matrix(0.966705, 0.255894, -0.255894, 0.966705, 10.058750, -22.022771)" width="119" height="5" style="fill: rgb(26, 24, 24); fill-opacity: 1;"/></g></g><g id="shape-57be61d8-f430-807f-8002-cc1c5f0f50db"><g class="fills" id="fills-57be61d8-f430-807f-8002-cc1c5f0f50db"><rect rx="0" ry="0" x="32.15867086548212" y="20.142466294725693" transform="matrix(0.966705, 0.255894, -0.255894, 0.966705, 8.845870, -22.701036)" width="119" height="5" style="fill: rgb(26, 24, 24); fill-opacity: 1;"/></g></g><g id="shape-57be61d8-f430-807f-8002-cc1c5f6f2b3a"><g class="fills" id="fills-57be61d8-f430-807f-8002-cc1c5f6f2b3a"><rect rx="0" ry="0" x="34.15867086548212" y="15.142466294725693" transform="matrix(0.966705, 0.255894, -0.255894, 0.966705, 7.632989, -23.379300)" width="119" height="5" style="fill: rgb(26, 24, 24); fill-opacity: 1;"/></g></g></g></svg>